<!DOCTYPE svg PUBLIC "-//W3C//DTD SVG 1.1//EN" "http://www.w3.org/Graphics/SVG/1.1/DTD/svg11.dtd">
<svg xmlns="http://www.w3.org/2000/svg" xmlns:xlink="http://www.w3.org/1999/xlink" version="1.1" width="171.156pt" height="117.673pt" viewBox="0 0 171.156 117.673">
<g enable-background="new">
<symbol id="font_0_7">
<path d="M .20400001 .661 C .19500001 .683 .19200002 .683 .16900002 .683 L 0 .683 L 0 .652 L .024000004 .652 C .10100001 .652 .103 .64100006 .103 .605 L .103 .105000007 C .103 .078 .103 .031000002 0 .031000002 L 0 0 C .035000005 .001 .08400001 .003 .11700001 .003 C .15 .003 .19900002 .001 .23400003 0 L .23400003 .031000002 C .13100001 .031000002 .13100001 .078 .13100001 .105000007 L .13100001 .64400008 L .13200002 .64400008 L .37300004 .022000002 C .37800003 .009000001 .38300003 0 .393 0 C .404 0 .40700004 .008 .411 .019000002 L .657 .652 L .65800008 .652 L .65800008 .078 C .65800008 .042000005 .656 .031000002 .57900008 .031000002 L .555 .031000002 L .555 0 C .592 .003 .66 .003 .69900009 .003 C .73800006 .003 .80500009 .003 .84200009 0 L .84200009 .031000002 L .818 .031000002 C .74100008 .031000002 .739 .042000005 .739 .078 L .739 .605 C .739 .64100006 .74100008 .652 .818 .652 L .84200009 .652 L .84200009 .683 L .67300006 .683 C .647 .683 .647 .68200007 .64000007 .66400006 L .42100004 .101 L .20400001 .661 Z "/>
</symbol>
<symbol id="font_0_6">
<path d="M .19700001 .605 C .19700001 .64100006 .20000002 .652 .279 .652 L .305 .652 L .305 .683 C .27 .68 .19100002 .68 .15300001 .68 C .11400001 .68 .035 .68 0 .683 L 0 .652 L .026 .652 C .105000007 .652 .10800001 .64100006 .10800001 .605 L .10800001 .078 C .10800001 .042000005 .105000007 .031000002 .026 .031000002 L 0 .031000002 L 0 0 C .035 .003 .11400001 .003 .15200001 .003 C .19100002 .003 .27 .003 .305 0 L .305 .031000002 L .279 .031000002 C .20000002 .031000002 .19700001 .042000005 .19700001 .078 L .19700001 .605 Z "/>
</symbol>
<symbol id="font_0_8">
<path d="M .199 .67 C .19 .68200007 .18900001 .683 .17000002 .683 L 0 .683 L 0 .652 L .029000003 .652 C .044000009 .652 .064 .651 .079 .65000006 C .102000009 .647 .10300001 .646 .10300001 .62700006 L .10300001 .105000007 C .10300001 .078 .10300001 .031000002 0 .031000002 L 0 0 C .035000005 .001 .08400001 .003 .117000009 .003 C .15 .003 .199 .001 .23400003 0 L .23400003 .031000002 C .13100001 .031000002 .13100001 .078 .13100001 .105000007 L .13100001 .625 C .136 .62 .137 .619 .141 .61300006 L .549 .013 C .558 .001 .559 0 .56600007 0 C .58000007 0 .58000007 .007 .58000007 .026 L .58000007 .578 C .58000007 .605 .58000007 .652 .683 .652 L .683 .683 C .64800009 .68200007 .59900006 .68 .56600007 .68 C .53300008 .68 .48400004 .68200007 .44900004 .683 L .44900004 .652 C .55200007 .652 .55200007 .605 .55200007 .578 L .55200007 .15100001 L .199 .67 Z "/>
</symbol>
<symbol id="font_0_1">
<path d="M .23200003 .00999999 C .23200003 .012999982 .23200003 .014999986 .215 .03199999 C .09 .15799999 .058 .347 .058 .5 C .058 .674 .096 .84800007 .21900001 .97300007 C .23200003 .985 .23200003 .98700007 .23200003 .99 C .23200003 .99700006 .22800002 1 .222 1 C .21200001 1 .12200001 .93200007 .06299999 .805 C .012000002 .69500008 0 .584 0 .5 C 0 .422 .011 .301 .066 .188 C .126 .065 .21200001 0 .222 0 C .22800002 0 .23200003 .0029999912 .23200003 .00999999 Z "/>
</symbol>
<symbol id="font_0_4">
<path d="M .205 .64000007 C .205 .66400006 .205 .666 .18200003 .666 C .120000008 .60200008 .032000007 .60200008 0 .60200008 L 0 .57100006 C .020000004 .57100006 .07900001 .57100006 .13100001 .597 L .13100001 .079 C .13100001 .043 .128 .031000002 .038000004 .031000002 L .0060000049 .031000002 L .0060000049 0 C .04100001 .003 .128 .003 .168 .003 C .20800002 .003 .29500003 .003 .33000005 0 L .33000005 .031000002 L .29800005 .031000002 C .20800002 .031000002 .205 .042000005 .205 .079 L .205 .64000007 Z "/>
</symbol>
<symbol id="font_0_2">
<path d="M .232 .5 C .232 .578 .22100002 .699 .16600001 .81200006 C .106 .93500009 .020000004 1 .009999998 1 C .0040000008 1 0 .99600008 0 .99 C 0 .98700007 0 .985 .019000002 .967 C .117000009 .86800006 .174 .709 .174 .5 C .174 .329 .137 .153 .012999997 .026999996 C 0 .014999986 0 .012999982 0 .00999999 C 0 .003999993 .0040000008 0 .009999998 0 C .020000004 0 .11000001 .06799999 .169 .195 C .22 .305 .232 .416 .232 .5 Z "/>
</symbol>
<use xlink:href="#font_0_7" transform="matrix(9.9626,0,0,-9.9626,67.82062,19.692994)" class="fill"/>
<use xlink:href="#font_0_6" transform="matrix(9.9626,0,0,-9.9626,76.86666,19.692994)" class="fill"/>
<use xlink:href="#font_0_8" transform="matrix(9.9626,0,0,-9.9626,80.51297,19.692994)" class="fill"/>
<use xlink:href="#font_0_1" transform="matrix(9.9626,0,0,-9.9626,91.96,22.183644)" class="fill"/>
<use xlink:href="#font_0_4" transform="matrix(9.9626,0,0,-9.9626,95.735828,19.692994)" class="fill"/>
<use xlink:href="#font_0_2" transform="matrix(9.9626,0,0,-9.9626,100.39832,22.183644)" class="fill"/>
<symbol id="font_0_5">
<path d="M .36600004 .69600006 C .361 .70900008 .35900004 .716 .34300003 .716 C .32700003 .716 .324 .71000006 .319 .69600006 L .112 .098000008 C .094 .047000003 .054 .032 0 .031000002 L 0 0 C .023000002 .001 .066 .003 .102 .003 C .133 .003 .185 .001 .21700001 0 L .21700001 .031000002 C .16700001 .031000002 .142 .056 .142 .082 C .142 .085 .143 .095000009 .14400001 .097 L .19000001 .22800002 L .437 .22800002 L .49 .075 C .491 .071 .49300004 .065000008 .49300004 .061000006 C .49300004 .031000002 .437 .031000002 .41000004 .031000002 L .41000004 0 C .446 .003 .51600006 .003 .554 .003 C .597 .003 .643 .002 .685 0 L .685 .031000002 L .66700008 .031000002 C .60700008 .031000002 .593 .038000004 .582 .071 L .36600004 .69600006 M .31300003 .58400008 L .42600004 .259 L .201 .259 L .31300003 .58400008 Z "/>
</symbol>
<symbol id="font_0_9">
<path d="M .37800003 .386 L .51500007 .587 C .53700008 .619 .57100006 .651 .66 .652 L .66 .683 C .62100008 .68200007 .57400009 .68 .549 .68 C .50900009 .68 .46100004 .68 .42100004 .683 L .42100004 .652 C .46100004 .651 .48300005 .629 .48300005 .606 C .48300005 .596 .481 .59400007 .47400005 .583 L .36 .41400004 L .23100002 .60700008 C .22900002 .61 .224 .61800006 .224 .62200006 C .224 .634 .246 .651 .28900004 .652 L .28900004 .683 C .25400005 .68 .18100001 .68 .143 .68 C .112 .68 .05 .68100008 .013 .683 L .013 .652 L .032 .652 C .08700001 .652 .106000009 .64500007 .125 .61700007 L .30900003 .33900003 L .14500001 .097 C .131 .07700001 .100999999 .031000002 0 .031000002 L 0 0 C .036000004 .001 .07800001 .003 .111 .003 C .148 .003 .20300001 .003 .23900001 0 L .23900001 .031000002 C .193 .032 .176 .059000005 .176 .07700001 C .176 .086 .179 .09 .186 .101 L .32800005 .31100003 L .48600007 .072000008 C .48800005 .068 .49100007 .064 .49100007 .061000006 C .49100007 .049000004 .46900005 .032 .42600004 .031000002 L .42600004 0 C .46100004 .003 .53400006 .003 .572 .003 C .614 .003 .66 .002 .702 0 L .702 .031000002 L .683 .031000002 C .63100007 .031000002 .61 .036000004 .58900007 .067 L .37800003 .386 Z "/>
</symbol>
<use xlink:href="#font_0_7" transform="matrix(9.9626,0,0,-9.9626,23.363619,62.21199)" class="fill red"/>
<use xlink:href="#font_0_5" transform="matrix(9.9626,0,0,-9.9626,32.44951,62.21199)" class="fill red"/>
<use xlink:href="#font_0_9" transform="matrix(9.9626,0,0,-9.9626,39.841764,62.21199)" class="fill red"/>
<use xlink:href="#font_0_1" transform="matrix(9.9626,0,0,-9.9626,51.378458,64.70264)" class="fill red"/>
<use xlink:href="#font_0_4" transform="matrix(9.9626,0,0,-9.9626,55.15428,62.21199)" class="fill red"/>
<use xlink:href="#font_0_2" transform="matrix(9.9626,0,0,-9.9626,59.816778,64.70264)" class="fill red"/>
<path transform="matrix(1,0,0,-1,85.578,17.201996)" stroke-width=".3985" stroke-linecap="butt" stroke-miterlimit="10" stroke-linejoin="miter" fill="none" class="stroke" d="M -8.50067 -8.50119 L -34.02211 -34.01901 "/>
<symbol id="font_0_3">
<path d="M .421 .34200005 C .421 .42200003 .416 .50200006 .381 .57600006 C .335 .67200008 .25300003 .688 .211 .688 C .15100001 .688 .07800001 .66200008 .037000006 .56900009 C .0050000029 .5 0 .42200003 0 .34200005 C 0 .26700003 .0040000008 .177 .045000007 .101 C .088 .020000002 .161 0 .21000001 0 C .264 0 .34 .021000002 .384 .116000007 C .416 .185 .421 .263 .421 .34200005 M .21000001 .022000002 C .171 .022000002 .112 .047000003 .094 .143 C .083000008 .20300001 .083000008 .29500003 .083000008 .35400004 C .083000008 .41800005 .083000008 .48400004 .091000009 .53800007 C .11 .65700009 .185 .66600009 .21000001 .66600009 C .243 .66600009 .30900003 .64800009 .328 .549 C .338 .49300004 .338 .41700004 .338 .35400004 C .338 .279 .338 .21100001 .32700003 .147 C .312 .052 .255 .022000002 .21000001 .022000002 Z "/>
</symbol>
<use xlink:href="#font_0_3" transform="matrix(9.9626,0,0,-9.9626,12.609542,105.67117)" class="fill blue"/>
<path transform="matrix(1,0,0,-1,85.578,17.201996)" stroke-width=".3985" stroke-linecap="butt" stroke-miterlimit="10" stroke-linejoin="miter" fill="none" class="stroke" d="M -48.18706 -51.02142 L -66.38202 -78.3104 "/>
<use xlink:href="#font_0_4" transform="matrix(9.9626,0,0,-9.9626,69.800678,105.451999)" class="fill red"/>
<path transform="matrix(1,0,0,-1,85.578,17.201996)" stroke-width=".3985" stroke-linecap="butt" stroke-miterlimit="10" stroke-linejoin="miter" fill="none" class="stroke" d="M -36.85335 -51.02142 L -18.65843 -78.3104 "/>
<use xlink:href="#font_0_7" transform="matrix(9.9626,0,0,-9.9626,108.40262,62.21199)" class="fill red"/>
<use xlink:href="#font_0_5" transform="matrix(9.9626,0,0,-9.9626,117.48851,62.21199)" class="fill red"/>
<use xlink:href="#font_0_9" transform="matrix(9.9626,0,0,-9.9626,124.88076,62.21199)" class="fill red"/>
<use xlink:href="#font_0_1" transform="matrix(9.9626,0,0,-9.9626,136.41745,64.70264)" class="fill red"/>
<use xlink:href="#font_0_4" transform="matrix(9.9626,0,0,-9.9626,140.19329,62.21199)" class="fill red"/>
<use xlink:href="#font_0_2" transform="matrix(9.9626,0,0,-9.9626,144.85578,64.70264)" class="fill red"/>
<path transform="matrix(1,0,0,-1,85.578,17.201996)" stroke-width=".3985" stroke-linecap="butt" stroke-miterlimit="10" stroke-linejoin="miter" fill="none" class="stroke" d="M 8.50067 -8.50119 L 34.02216 -34.01901 "/>
<use xlink:href="#font_0_4" transform="matrix(9.9626,0,0,-9.9626,98.147678,105.451999)" class="fill red"/>
<path transform="matrix(1,0,0,-1,85.578,17.201996)" stroke-width=".3985" stroke-linecap="butt" stroke-miterlimit="10" stroke-linejoin="miter" fill="none" class="stroke" d="M 36.8534 -51.02142 L 18.65843 -78.3104 "/>
<use xlink:href="#font_0_3" transform="matrix(9.9626,0,0,-9.9626,154.34255,105.67117)" class="fill blue"/>
<path transform="matrix(1,0,0,-1,85.578,17.201996)" stroke-width=".3985" stroke-linecap="butt" stroke-miterlimit="10" stroke-linejoin="miter" fill="none" class="stroke" d="M 48.1871 -51.02142 L 66.38202 -78.3104 "/>
</g>
</svg>
