<svg xmlns="http://www.w3.org/2000/svg"
    xmlns:xlink="http://www.w3.org/1999/xlink" width="228.208" height="156.897" viewBox="0 0 171.156 117.673" version="1.2" class="themed">
    <defs>
        <symbol overflow="visible" id="a">
            <path style="stroke:none" d="M2.39-6.547c-.093-.219-.124-.219-.343-.219H.359v.313h.25c.75 0 .782.11.782.453v4.953c0 .281 0 .734-1.032.734V0c.36-.016.844-.031 1.172-.031.328 0 .813.015 1.157.031v-.313c-1.016 0-1.016-.453-1.016-.734v-5.328l2.39 6.156c.047.125.094.219.204.219.109 0 .125-.078.171-.188l2.438-6.265h.016v5.687c0 .344-.032.454-.782.454h-.25V0c.375-.031 1.047-.031 1.438-.031.375 0 1.047 0 1.406.031v-.313H8.47c-.766 0-.781-.109-.781-.453V-6c0-.344.015-.453.78-.453h.235v-.313H7.031c-.25 0-.25.016-.328.188L4.531-1zm0 0"/>
        </symbol>
        <symbol overflow="visible" id="b">
            <path style="stroke:none" d="M2.234-6c0-.344.032-.453.813-.453h.25v-.313c-.344.032-1.125.032-1.5.032-.39 0-1.172 0-1.516-.032v.313h.25c.781 0 .813.11.813.453v5.234c0 .344-.032.454-.813.454h-.25V0c.344-.031 1.125-.031 1.5-.031.39 0 1.172 0 1.516.031v-.313h-.25c-.781 0-.813-.109-.813-.453zm0 0"/>
        </symbol>
        <symbol overflow="visible" id="c">
            <path style="stroke:none" d="M2.297-6.64c-.094-.11-.094-.126-.281-.126H.328v.313H.61c.157 0 .344 0 .5.016.235.03.235.03.235.218v5.172c0 .281 0 .734-1.016.734V0c.344-.016.828-.031 1.156-.031.329 0 .813.015 1.157.031v-.313c-1.016 0-1.016-.453-1.016-.734v-5.14a.584.584 0 0 1 .094.109L5.766-.125c.093.11.093.125.171.125.141 0 .141-.063.141-.25v-5.469c0-.281 0-.734 1.016-.734v-.313c-.344.016-.828.032-1.157.032-.328 0-.812-.016-1.156-.032v.313c1.016 0 1.016.453 1.016.734V-1.5zm0 0"/>
        </symbol>
        <symbol overflow="visible" id="d">
            <path style="stroke:none" d="M3.281 2.375c0-.031 0-.047-.172-.219-1.234-1.25-1.546-3.11-1.546-4.64 0-1.72.375-3.438 1.593-4.672.125-.125.125-.14.125-.172 0-.078-.047-.11-.094-.11-.109 0-1 .688-1.578 1.938C1.094-4.406.984-3.312.984-2.484c0 .78.11 1.984.657 3.093.593 1.22 1.437 1.875 1.546 1.875.047 0 .094-.03.094-.109zm0 0"/>
        </symbol>
        <symbol overflow="visible" id="e">
            <path style="stroke:none" d="M4.563-3.172c0-.797-.063-1.578-.407-2.312-.453-.954-1.265-1.11-1.672-1.11-.609 0-1.328.25-1.734 1.172-.313.688-.36 1.453-.36 2.25 0 .75.032 1.64.438 2.39.438.798 1.156 1 1.64 1C3 .219 3.75.017 4.189-.936c.312-.672.375-1.454.375-2.235zM2.469 0c-.39 0-.969-.25-1.156-1.203-.11-.594-.11-1.5-.11-2.078 0-.64 0-1.297.078-1.828.188-1.188.938-1.266 1.188-1.266.328 0 .984.172 1.172 1.156.093.547.093 1.313.093 1.938 0 .734 0 1.406-.109 2.047C3.485-.297 2.906 0 2.469 0zm0 0"/>
        </symbol>
        <symbol overflow="visible" id="f">
            <path style="stroke:none" d="M2.86-2.484c0-.766-.11-1.97-.657-3.079C1.61-6.78.766-7.438.656-7.438c-.047 0-.094.047-.094.11 0 .031 0 .047.188.219.969.984 1.531 2.562 1.531 4.625 0 1.703-.36 3.437-1.594 4.687-.125.125-.125.14-.125.172 0 .063.047.11.094.11.11 0 1-.688 1.578-1.938.516-1.094.625-2.188.625-3.031zm0 0"/>
        </symbol>
        <symbol overflow="visible" id="g">
            <path style="stroke:none" d="M3.938-6.89c-.047-.141-.063-.204-.22-.204-.155 0-.187.063-.234.203L1.422-.969c-.172.5-.563.656-1.11.656V0C.547-.016.97-.031 1.329-.031c.313 0 .828.015 1.14.031v-.313c-.5 0-.75-.25-.75-.5 0-.03.016-.125.032-.14l.453-1.313h2.438L5.17-.75a.58.58 0 0 1 .032.14c0 .297-.562.297-.828.297V0c.36-.031 1.047-.031 1.438-.031.421 0 .875.015 1.296.031v-.313h-.187c-.594 0-.734-.062-.844-.39zm-.516 1.109 1.11 3.218h-2.22zm0 0"/>
        </symbol>
        <symbol overflow="visible" id="h">
            <path style="stroke:none" d="m3.984-3.828 1.36-1.985c.218-.312.547-.64 1.437-.64v-.313c-.39.016-.86.032-1.11.032-.39 0-.874 0-1.265-.032v.313c.39 0 .61.219.61.453 0 .094-.016.11-.079.219l-1.14 1.687L2.53-6.016c-.031-.03-.078-.109-.078-.14 0-.125.219-.297.64-.297v-.313c-.343.032-1.062.032-1.437.032-.312 0-.922-.016-1.297-.032v.313h.204c.53 0 .718.062.906.344l1.828 2.75L1.672-.953c-.14.187-.438.64-1.438.64V0c.36-.016.782-.031 1.11-.031.36 0 .906 0 1.265.031v-.313c-.453 0-.625-.265-.625-.453 0-.093.032-.125.094-.234l1.406-2.078 1.563 2.36c.031.046.062.077.062.109 0 .125-.218.296-.656.296V0c.344-.031 1.078-.031 1.453-.031.407 0 .875.015 1.282.031v-.313H7c-.516 0-.719-.046-.922-.343zm0 0"/>
        </symbol>
        <symbol overflow="visible" id="i">
            <path style="stroke:none" d="M2.906-6.344c0-.234 0-.25-.219-.25-.609.625-1.484.625-1.812.625v.313c.203 0 .797 0 1.297-.25v5.125c0 .36-.016.469-.906.469H.937V0c.344-.031 1.22-.031 1.61-.031.39 0 1.25 0 1.61.031v-.313h-.329c-.89 0-.922-.109-.922-.468zm0 0"/>
        </symbol>
    </defs>
    <g style="fill-opacity:1">
        <use xlink:href="#a" x="67.121" y="19.722"/>
        <use xlink:href="#b" x="76.209" y="19.722"/>
        <use xlink:href="#c" x="79.789" y="19.722"/>
    </g>
    <g style="fill-opacity:1">
        <use xlink:href="#d" x="90.525" y="19.722"/>
        <use xlink:href="#e" x="94.381" y="19.722"/>
        <use xlink:href="#f" x="99.338" y="19.722"/>
    </g>
    <g style="fill:#b7352d;fill-opacity:1">
        <use xlink:href="#a" x="22.882" y="62.033"/>
        <use xlink:href="#g" x="31.97" y="62.033"/>
        <use xlink:href="#h" x="39.405" y="62.033"/>
    </g>
    <g style="fill:#b7352d;fill-opacity:1">
        <use xlink:href="#d" x="50.142" y="62.033"/>
        <use xlink:href="#e" x="53.997" y="62.033"/>
        <use xlink:href="#f" x="58.954" y="62.033"/>
    </g>
    <path style="fill:none;stroke-width:.3985;stroke-linecap:butt;stroke-linejoin:miter;stroke-opacity:1;stroke-miterlimit:10" d="m-8.5-8.501-25.52-25.516" transform="matrix(.9951 0 0 -.9951 85.158 17.244)"/>
    <use xlink:href="#e" x="12.161" y="105.061" style="fill:#b7352d;fill-opacity:1"/>
    <path style="fill:none;stroke-width:.3985;stroke-linecap:butt;stroke-linejoin:miter;stroke-opacity:1;stroke-miterlimit:10" d="M-48.187-51.022-66.382-78.31" transform="matrix(.9951 0 0 -.9951 85.158 17.244)"/>
    <use xlink:href="#e" x="68.576" y="105.061" style="fill:#b7352d;fill-opacity:1"/>
    <path style="fill:none;stroke-width:.3985;stroke-linecap:butt;stroke-linejoin:miter;stroke-opacity:1;stroke-miterlimit:10" d="M-36.855-51.022-18.66-78.31" transform="matrix(.9951 0 0 -.9951 85.158 17.244)"/>
    <g style="fill:#215caf;fill-opacity:1">
        <use xlink:href="#a" x="107.504" y="62.033"/>
        <use xlink:href="#g" x="116.592" y="62.033"/>
        <use xlink:href="#h" x="124.027" y="62.033"/>
    </g>
    <g style="fill:#215caf;fill-opacity:1">
        <use xlink:href="#d" x="134.764" y="62.033"/>
        <use xlink:href="#i" x="138.619" y="62.033"/>
        <use xlink:href="#f" x="143.576" y="62.033"/>
    </g>
    <path style="fill:none;stroke-width:.3985;stroke-linecap:butt;stroke-linejoin:miter;stroke-opacity:1;stroke-miterlimit:10" d="m8.5-8.501 25.52-25.516" transform="matrix(.9951 0 0 -.9951 85.158 17.244)"/>
    <use xlink:href="#e" x="96.784" y="105.061" style="fill:#627313;fill-opacity:1"/>
    <path style="fill:none;stroke-width:.3985;stroke-linecap:butt;stroke-linejoin:miter;stroke-opacity:1;stroke-miterlimit:10" d="M36.855-51.022 18.66-78.31" transform="matrix(.9951 0 0 -.9951 85.158 17.244)"/>
    <use xlink:href="#i" x="153.199" y="105.061" style="fill:#215caf;fill-opacity:1"/>
    <path style="fill:none;stroke-width:.3985;stroke-linecap:butt;stroke-linejoin:miter;stroke-opacity:1;stroke-miterlimit:10" d="M48.188-51.022 66.383-78.31" transform="matrix(.9951 0 0 -.9951 85.158 17.244)"/>
</svg>