<svg xmlns="http://www.w3.org/2000/svg"
    xmlns:xlink="http://www.w3.org/1999/xlink" width="316.671" height="266.925" viewBox="0 0 237.503 200.194" version="1.2" class="themed">
    <defs>
        <symbol overflow="visible" id="h">
            <path style="stroke:none" d="M4.563-3.172c0-.797-.047-1.594-.391-2.328-.469-.953-1.281-1.11-1.688-1.11-.593 0-1.328.266-1.734 1.188-.313.672-.36 1.453-.36 2.25 0 .735.032 1.64.438 2.39.438.798 1.156 1 1.64 1C3 .219 3.767.017 4.204-.936c.313-.688.36-1.454.36-2.235zM2.469 0c-.39 0-.969-.25-1.156-1.203-.11-.594-.11-1.5-.11-2.094 0-.625 0-1.281.094-1.828.187-1.172.922-1.266 1.172-1.266.328 0 .984.172 1.172 1.157.093.562.093 1.312.093 1.937 0 .75 0 1.422-.109 2.063C3.485-.297 2.922 0 2.469 0zm0 0"/>
        </symbol>
        <symbol overflow="visible" id="a">
            <path style="stroke:none" d="M2.234-6c0-.36.032-.469.813-.469h.25v-.312c-.344.031-1.125.031-1.5.031-.39 0-1.172 0-1.516-.031v.312h.25c.781 0 .813.11.813.469v5.219c0 .36-.032.469-.813.469h-.25V0c.344-.031 1.125-.031 1.5-.031.39 0 1.172 0 1.516.031v-.313h-.25c-.781 0-.813-.109-.813-.468zm0 0"/>
        </symbol>
        <symbol overflow="visible" id="c">
            <path style="stroke:none" d="m1.75-4.39-1.39.109v.312c.656 0 .734.063.734.547V-.75c0 .438-.11.438-.766.438V0c.313-.016.86-.031 1.094-.031.344 0 .687.015 1.031.031v-.313c-.656 0-.703-.046-.703-.437zm.047-1.72a.527.527 0 0 0-.531-.53c-.297 0-.516.265-.516.53a.52.52 0 0 0 .516.516c.28 0 .53-.203.53-.515zm0 0"/>
        </symbol>
        <symbol overflow="visible" id="d">
            <path style="stroke:none" d="M1.719-3.969H3.14v-.312H1.719V-6.11h-.25c-.016.828-.313 1.875-1.282 1.921v.22h.844v2.734c0 1.218.922 1.343 1.282 1.343.703 0 .984-.703.984-1.343v-.563h-.25v.547c0 .734-.297 1.11-.672 1.11-.656 0-.656-.907-.656-1.063zm0 0"/>
        </symbol>
        <symbol overflow="visible" id="e">
            <path style="stroke:none" d="M3.297-.75c.047.39.312.813.781.813.203 0 .813-.141.813-.954v-.546h-.25v.546c0 .579-.25.641-.36.641-.328 0-.36-.438-.36-.5v-1.984c0-.407 0-.797-.358-1.172a1.949 1.949 0 0 0-1.36-.531c-.812 0-1.5.453-1.5 1.109 0 .297.203.469.453.469a.448.448 0 0 0 .469-.454c0-.124-.063-.453-.516-.453.266-.359.75-.468 1.079-.468.484 0 1.046.39 1.046 1.28v.36c-.5.031-1.203.063-1.828.36-.734.343-.984.859-.984 1.296C.422-.14 1.375.11 2 .11c.656 0 1.11-.39 1.297-.859zm-.063-1.625v.984c0 .938-.718 1.282-1.156 1.282-.484 0-.89-.344-.89-.844 0-.547.406-1.375 2.046-1.422zm0 0"/>
        </symbol>
        <symbol overflow="visible" id="f">
            <path style="stroke:none" d="m1.75-6.89-1.422.109v.312c.688 0 .766.063.766.563V-.75c0 .438-.11.438-.766.438V0c.328-.016.86-.031 1.094-.031.25 0 .734.015 1.11.031v-.313c-.673 0-.782 0-.782-.437zm0 0"/>
        </symbol>
        <symbol overflow="visible" id="g">
            <path style="stroke:none" d="M5.781-6.75H.328v.313h.234c.766 0 .782.109.782.468V-.78c0 .36-.016.469-.782.469H.329V0c.344-.031 1.125-.031 1.5-.031.422 0 1.313 0 1.672.031v-.313h-.328c-.938 0-.938-.124-.938-.468V-3.22h.844c.953 0 1.063.313 1.063 1.156h.25v-2.624h-.25c0 .828-.11 1.156-1.063 1.156h-.844v-2.516c0-.328.016-.39.485-.39h1.187c1.485 0 1.735.546 1.89 1.921h.25zm0 0"/>
        </symbol>
        <symbol overflow="visible" id="b">
            <path style="stroke:none" d="M1.094-3.406V-.75c0 .438-.11.438-.782.438V0c.36-.016.86-.031 1.125-.031.266 0 .782.015 1.11.031v-.313c-.656 0-.766 0-.766-.437v-1.828c0-1.031.703-1.594 1.328-1.594.625 0 .735.547.735 1.11V-.75c0 .438-.11.438-.766.438V0a30.36 30.36 0 0 1 1.125-.031c.25 0 .766.015 1.11.031v-.313c-.516 0-.766 0-.782-.296V-2.5c0-.86 0-1.156-.297-1.516-.14-.171-.468-.375-1.046-.375-.735 0-1.188.438-1.47 1.047V-4.39l-1.405.11v.312c.703 0 .78.063.78.563zm0 0"/>
        </symbol>
        <symbol overflow="visible" id="i">
            <path style="stroke:none" d="M2.922-6.344c0-.25 0-.265-.235-.265-.609.64-1.484.64-1.796.64v.297c.187 0 .78 0 1.296-.25v5.14c0 .36-.03.47-.921.47H.937V0c.36-.031 1.22-.031 1.61-.031.406 0 1.265 0 1.61.031v-.313h-.313c-.89 0-.922-.109-.922-.468zm0 0"/>
        </symbol>
        <symbol overflow="visible" id="j">
            <path style="stroke:none" d="M1.906-.531A.524.524 0 1 0 .86-.515a.524.524 0 0 0 1.047-.016zm0 0"/>
        </symbol>
        <symbol overflow="visible" id="l">
            <path style="stroke:none" d="M1.625-4.531c-.469-.297-.5-.64-.5-.813 0-.593.64-1.015 1.344-1.015.719 0 1.36.515 1.36 1.234 0 .563-.392 1.031-.985 1.39zm1.438.937c.718-.36 1.203-.875 1.203-1.531 0-.922-.875-1.484-1.782-1.484-1 0-1.796.734-1.796 1.656 0 .187.015.625.437 1.094.11.125.469.359.719.53C1.266-3.03.422-2.483.422-1.5c0 1.047 1 1.719 2.047 1.719 1.125 0 2.062-.828 2.062-1.89 0-.36-.11-.798-.484-1.22-.188-.203-.344-.296-.984-.703zm-.985.422 1.219.766c.281.187.734.484.734 1.094 0 .734-.734 1.25-1.547 1.25C1.625-.063.906-.672.906-1.5c0-.578.328-1.203 1.172-1.672zm0 0"/>
        </symbol>
        <symbol overflow="visible" id="m">
            <path style="stroke:none" d="M4.719-6.047c.093-.11.093-.14.093-.344H2.406c-1.219 0-1.234-.125-1.281-.312H.891L.562-4.656h.235c.031-.172.125-.797.25-.907.078-.062.844-.062.984-.062h2.047c-.11.156-.89 1.234-1.11 1.563C2.079-2.72 1.75-1.345 1.75-.329c0 .094 0 .547.453.547s.453-.453.453-.547v-.5c0-.547.031-1.094.11-1.625.046-.235.187-1.094.625-1.703zm0 0"/>
        </symbol>
        <symbol overflow="visible" id="k">
            <path style="stroke:none" d="M4.64-3.688c0-.546-.25-.703-.437-.703-.25 0-.484.266-.484.485 0 .125.047.187.156.297.219.203.344.453.344.812 0 .422-.61 2.688-1.766 2.688-.515 0-.734-.344-.734-.86 0-.562.265-1.281.578-2.11.062-.171.11-.312.11-.5 0-.437-.313-.812-.813-.812C.672-4.39.28-2.953.28-2.859c0 .093.11.093.125.093.094 0 .11-.015.156-.171.297-1 .72-1.235 1-1.235.079 0 .25 0 .25.328 0 .235-.093.516-.171.688-.438 1.156-.563 1.61-.563 2.031 0 1.078.875 1.234 1.328 1.234 1.672 0 2.235-3.28 2.235-3.796zm0 0"/>
        </symbol>
        <symbol overflow="visible" id="n">
            <path style="stroke:none" d="M1.906-2.484a.524.524 0 1 0-1.047.016.524.524 0 0 0 1.047-.016zm0 0"/>
        </symbol>
    </defs>
    <g style="fill-opacity:1">
        <use xlink:href="#a" x="105.411" y="19.062"/>
        <use xlink:href="#b" x="108.994" y="19.062"/>
        <use xlink:href="#c" x="114.507" y="19.062"/>
        <use xlink:href="#d" x="117.264" y="19.062"/>
        <use xlink:href="#c" x="121.123" y="19.062"/>
        <use xlink:href="#e" x="123.879" y="19.062"/>
        <use xlink:href="#f" x="128.841" y="19.062"/>
    </g>
    <use xlink:href="#g" x="54.666" y="61.357" style="fill-opacity:1"/>
    <use xlink:href="#h" x="64.447" y="61.357" style="fill-opacity:1"/>
    <path style="stroke-width:.3985;stroke-linecap:butt;stroke-linejoin:miter;stroke-opacity:1;stroke-miterlimit:10" d="m-9.306-6.977-38.161-28.619" transform="matrix(.99599 0 0 -.99599 118.503 15.617)"/>
    <use xlink:href="#g" x="26.432" y="103.705" style="fill-opacity:1"/>
    <use xlink:href="#i" x="36.214" y="103.705" style="fill-opacity:1"/>
    <path style="fill:none;stroke-width:.3985;stroke-linecap:butt;stroke-linejoin:miter;stroke-opacity:1;stroke-miterlimit:10" d="m-61.308-49.444-19.12-28.674" transform="matrix(.99599 0 0 -.99599 118.503 15.617)"/>
    <use xlink:href="#j" x="13.606" y="142.197" style="fill-opacity:1"/>
    <use xlink:href="#j" x="13.606" y="146.166" style="fill-opacity:1"/>
    <use xlink:href="#j" x="13.606" y="150.135" style="fill-opacity:1"/>
    <path style="fill:none;stroke-width:.3985;stroke-linecap:butt;stroke-linejoin:miter;stroke-opacity:1;stroke-miterlimit:10" d="m-88.119-91.963-10.922-24.579" transform="matrix(.99599 0 0 -.99599 118.503 15.617)"/>
    <use xlink:href="#k" x="12.401" y="187.15" style="fill-opacity:1"/>
    <path style="fill:none;stroke-width:.3985;stroke-linecap:butt;stroke-linejoin:miter;stroke-opacity:1;stroke-miterlimit:10" d="M-103.94-138.58v-25.837" transform="matrix(.99599 0 0 -.99599 118.503 15.617)"/>
    <use xlink:href="#j" x="51.249" y="142.197" style="fill-opacity:1"/>
    <use xlink:href="#j" x="51.249" y="146.166" style="fill-opacity:1"/>
    <use xlink:href="#j" x="51.249" y="150.135" style="fill-opacity:1"/>
    <path style="fill:none;stroke-width:.3985;stroke-linecap:butt;stroke-linejoin:miter;stroke-opacity:1;stroke-miterlimit:10" d="m-81.965-91.963 10.927-24.579" transform="matrix(.99599 0 0 -.99599 118.503 15.617)"/>
    <use xlink:href="#k" x="50.045" y="187.15" style="fill-opacity:1"/>
    <path style="fill:none;stroke-width:.3985;stroke-linecap:butt;stroke-linejoin:miter;stroke-opacity:1;stroke-miterlimit:10" d="M-66.144-138.58v-25.837" transform="matrix(.99599 0 0 -.99599 118.503 15.617)"/>
    <use xlink:href="#g" x="82.898" y="103.705" style="fill-opacity:1"/>
    <use xlink:href="#l" x="92.68" y="103.705" style="fill-opacity:1"/>
    <path style="fill:none;stroke-width:.3985;stroke-linecap:butt;stroke-linejoin:miter;stroke-opacity:1;stroke-miterlimit:10" d="m-52.08-49.444 19.12-28.674" transform="matrix(.99599 0 0 -.99599 118.503 15.617)"/>
    <use xlink:href="#j" x="70.071" y="142.197" style="fill-opacity:1"/>
    <use xlink:href="#j" x="70.071" y="146.166" style="fill-opacity:1"/>
    <use xlink:href="#j" x="70.071" y="150.135" style="fill-opacity:1"/>
    <path style="fill:none;stroke-width:.3985;stroke-linecap:butt;stroke-linejoin:miter;stroke-opacity:1;stroke-miterlimit:10" d="m-31.422-91.963-10.927-24.579" transform="matrix(.99599 0 0 -.99599 118.503 15.617)"/>
    <use xlink:href="#k" x="68.866" y="187.15" style="fill-opacity:1"/>
    <path style="fill:none;stroke-width:.3985;stroke-linecap:butt;stroke-linejoin:miter;stroke-opacity:1;stroke-miterlimit:10" d="M-47.244-138.58v-25.837" transform="matrix(.99599 0 0 -.99599 118.503 15.617)"/>
    <use xlink:href="#j" x="107.715" y="142.197" style="fill-opacity:1"/>
    <use xlink:href="#j" x="107.715" y="146.166" style="fill-opacity:1"/>
    <use xlink:href="#j" x="107.715" y="150.135" style="fill-opacity:1"/>
    <path style="fill:none;stroke-width:.3985;stroke-linecap:butt;stroke-linejoin:miter;stroke-opacity:1;stroke-miterlimit:10" d="m-25.269-91.963 10.923-24.579" transform="matrix(.99599 0 0 -.99599 118.503 15.617)"/>
    <use xlink:href="#k" x="106.51" y="187.15" style="fill-opacity:1"/>
    <path style="fill:none;stroke-width:.3985;stroke-linecap:butt;stroke-linejoin:miter;stroke-opacity:1;stroke-miterlimit:10" d="M-9.448-138.58v-25.837" transform="matrix(.99599 0 0 -.99599 118.503 15.617)"/>
    <use xlink:href="#g" x="167.597" y="61.357" style="fill-opacity:1"/>
    <use xlink:href="#l" x="177.379" y="61.357" style="fill-opacity:1"/>
    <path style="fill:none;stroke-width:.3985;stroke-linecap:butt;stroke-linejoin:miter;stroke-opacity:1;stroke-miterlimit:10" d="m9.303-6.977 38.161-28.619" transform="matrix(.99599 0 0 -.99599 118.503 15.617)"/>
    <use xlink:href="#g" x="139.364" y="103.705" style="fill-opacity:1"/>
    <use xlink:href="#h" x="149.145" y="103.705" style="fill-opacity:1"/>
    <path style="fill:none;stroke-width:.3985;stroke-linecap:butt;stroke-linejoin:miter;stroke-opacity:1;stroke-miterlimit:10" d="M52.076-49.444 32.961-78.118" transform="matrix(.99599 0 0 -.99599 118.503 15.617)"/>
    <use xlink:href="#j" x="126.537" y="142.197" style="fill-opacity:1"/>
    <use xlink:href="#j" x="126.537" y="146.166" style="fill-opacity:1"/>
    <use xlink:href="#j" x="126.537" y="150.135" style="fill-opacity:1"/>
    <path style="fill:none;stroke-width:.3985;stroke-linecap:butt;stroke-linejoin:miter;stroke-opacity:1;stroke-miterlimit:10" d="m25.27-91.963-10.927-24.579" transform="matrix(.99599 0 0 -.99599 118.503 15.617)"/>
    <use xlink:href="#k" x="125.332" y="187.15" style="fill-opacity:1"/>
    <path style="fill:none;stroke-width:.3985;stroke-linecap:butt;stroke-linejoin:miter;stroke-opacity:1;stroke-miterlimit:10" d="M9.448-138.58v-25.837" transform="matrix(.99599 0 0 -.99599 118.503 15.617)"/>
    <use xlink:href="#j" x="164.181" y="142.197" style="fill-opacity:1"/>
    <use xlink:href="#j" x="164.181" y="146.166" style="fill-opacity:1"/>
    <use xlink:href="#j" x="164.181" y="150.135" style="fill-opacity:1"/>
    <path style="fill:none;stroke-width:.3985;stroke-linecap:butt;stroke-linejoin:miter;stroke-opacity:1;stroke-miterlimit:10" d="m31.423-91.963 10.927-24.579" transform="matrix(.99599 0 0 -.99599 118.503 15.617)"/>
    <use xlink:href="#k" x="162.975" y="187.15" style="fill-opacity:1"/>
    <path style="fill:none;stroke-width:.3985;stroke-linecap:butt;stroke-linejoin:miter;stroke-opacity:1;stroke-miterlimit:10" d="M47.245-138.58v-25.837" transform="matrix(.99599 0 0 -.99599 118.503 15.617)"/>
    <use xlink:href="#g" x="195.829" y="103.705" style="fill-opacity:1"/>
    <use xlink:href="#m" x="205.611" y="103.705" style="fill-opacity:1"/>
    <path style="fill:none;stroke-width:.3985;stroke-linecap:butt;stroke-linejoin:miter;stroke-opacity:1;stroke-miterlimit:10" d="m61.309-49.444 19.115-28.674" transform="matrix(.99599 0 0 -.99599 118.503 15.617)"/>
    <use xlink:href="#j" x="183.003" y="142.197" style="fill-opacity:1"/>
    <use xlink:href="#j" x="183.003" y="146.166" style="fill-opacity:1"/>
    <use xlink:href="#j" x="183.003" y="150.135" style="fill-opacity:1"/>
    <path style="fill:none;stroke-width:.3985;stroke-linecap:butt;stroke-linejoin:miter;stroke-opacity:1;stroke-miterlimit:10" d="m81.966-91.963-10.927-24.579" transform="matrix(.99599 0 0 -.99599 118.503 15.617)"/>
    <use xlink:href="#k" x="181.798" y="187.15" style="fill-opacity:1"/>
    <path style="fill:none;stroke-width:.3985;stroke-linecap:butt;stroke-linejoin:miter;stroke-opacity:1;stroke-miterlimit:10" d="M66.145-138.58v-25.837" transform="matrix(.99599 0 0 -.99599 118.503 15.617)"/>
    <use xlink:href="#j" x="220.646" y="142.197" style="fill-opacity:1"/>
    <use xlink:href="#j" x="220.646" y="146.166" style="fill-opacity:1"/>
    <use xlink:href="#j" x="220.646" y="150.135" style="fill-opacity:1"/>
    <path style="fill:none;stroke-width:.3985;stroke-linecap:butt;stroke-linejoin:miter;stroke-opacity:1;stroke-miterlimit:10" d="m88.115-91.963 10.927-24.579" transform="matrix(.99599 0 0 -.99599 118.503 15.617)"/>
    <use xlink:href="#k" x="219.441" y="187.15" style="fill-opacity:1"/>
    <path style="fill:none;stroke-width:.3985;stroke-linecap:butt;stroke-linejoin:miter;stroke-opacity:1;stroke-miterlimit:10" d="M103.937-138.58v-25.837" transform="matrix(.99599 0 0 -.99599 118.503 15.617)"/>
    <use xlink:href="#n" x="112.716" y="60.172" style="fill-opacity:1"/>
    <use xlink:href="#n" x="117.129" y="60.172" style="fill-opacity:1"/>
    <use xlink:href="#n" x="121.533" y="60.172" style="fill-opacity:1"/>
    <use xlink:href="#n" x="56.25" y="102.52" style="fill-opacity:1"/>
    <use xlink:href="#n" x="60.664" y="102.52" style="fill-opacity:1"/>
    <use xlink:href="#n" x="65.067" y="102.52" style="fill-opacity:1"/>
    <use xlink:href="#n" x="169.181" y="102.52" style="fill-opacity:1"/>
    <use xlink:href="#n" x="173.595" y="102.52" style="fill-opacity:1"/>
    <use xlink:href="#n" x="177.999" y="102.52" style="fill-opacity:1"/>
    <use xlink:href="#n" x="28.018" y="187.219" style="fill-opacity:1"/>
    <use xlink:href="#n" x="32.431" y="187.219" style="fill-opacity:1"/>
    <use xlink:href="#n" x="36.835" y="187.219" style="fill-opacity:1"/>
    <use xlink:href="#n" x="84.483" y="187.219" style="fill-opacity:1"/>
    <use xlink:href="#n" x="88.897" y="187.219" style="fill-opacity:1"/>
    <use xlink:href="#n" x="93.301" y="187.219" style="fill-opacity:1"/>
    <use xlink:href="#n" x="140.949" y="187.219" style="fill-opacity:1"/>
    <use xlink:href="#n" x="145.363" y="187.219" style="fill-opacity:1"/>
    <use xlink:href="#n" x="149.766" y="187.219" style="fill-opacity:1"/>
    <use xlink:href="#n" x="197.414" y="187.219" style="fill-opacity:1"/>
    <use xlink:href="#n" x="201.827" y="187.219" style="fill-opacity:1"/>
    <use xlink:href="#n" x="206.231" y="187.219" style="fill-opacity:1"/>
</svg>