<?xml version="1.0" standalone="no"?>
<!DOCTYPE svg PUBLIC "-//W3C//DTD SVG 20010904//EN"
 "http://www.w3.org/TR/2001/REC-SVG-20010904/DTD/svg10.dtd">
<svg version="1.0" xmlns="http://www.w3.org/2000/svg"
 width="203.000000pt" height="203.000000pt" viewBox="0 0 203.000000 203.000000"
 preserveAspectRatio="xMidYMid meet">
<metadata>
Created by potrace 1.14, written by Peter Selinger 2001-2017
</metadata>
<g transform="translate(0.000000,203.000000) scale(0.100000,-0.100000)"
fill="#000000" stroke="none">
<path d="M839 1529 c-96 -166 -175 -305 -177 -309 -2 -4 62 -7 142 -7 l145 -1
34 56 34 55 29 -49 c15 -27 32 -52 38 -56 10 -7 267 -8 279 -1 4 2 -1 19 -11
36 -11 18 -31 52 -44 77 -49 87 -280 485 -287 493 -4 4 -86 -128 -182 -294z"/>
<path d="M570 1062 c-41 -68 -357 -617 -369 -639 l-11 -23 682 1 683 1 85 -32
c165 -62 273 -100 276 -97 2 2 -32 63 -75 137 -44 74 -151 259 -238 410 l-159
275 -147 2 -147 2 11 -22 c7 -12 61 -106 120 -209 60 -103 110 -193 111 -199
2 -10 -81 -13 -372 -14 -206 -1 -378 0 -382 2 -4 2 16 43 44 91 27 48 60 105
73 127 12 22 45 79 74 127 28 48 51 88 51 91 0 2 -65 4 -144 5 l-144 1 -22
-37z"/>
</g>
</svg>
